<?xml version="1.0" encoding="UTF-8" standalone="no"?>
<!DOCTYPE svg PUBLIC "-//W3C//DTD SVG 1.1//EN" "http://www.w3.org/Graphics/SVG/1.1/DTD/svg11.dtd">
<svg version="1.1" xmlns="http://www.w3.org/2000/svg" xmlns:xlink="http://www.w3.org/1999/xlink" preserveAspectRatio="xMidYMid meet" viewBox="0 0 60 60" width="60" height="60"><defs><path d="M22.92 1.25L23.73 1.33L24.54 1.45L25.34 1.59L26.12 1.77L26.9 1.98L27.66 2.21L28.4 2.48L29.14 2.77L29.86 3.09L30.56 3.43L31.25 3.81L31.92 4.21L32.58 4.63L33.21 5.08L33.83 5.55L34.43 6.04L35.01 6.55L35.57 7.09L36.11 7.65L36.63 8.23L37.12 8.83L37.6 9.44L38.04 10.08L38.47 10.73L38.87 11.4L39.24 12.09L39.59 12.79L39.91 13.5L40.2 14.24L40.47 14.98L40.71 15.74L40.91 16.51L41.09 17.29L41.24 18.09L41.35 18.89L41.43 19.7L41.48 20.53L41.5 21.36L41.48 22.19L41.43 23.01L41.35 23.83L41.24 24.63L41.09 25.42L40.91 26.21L40.71 26.98L40.47 27.73L40.2 28.48L39.91 29.21L39.59 29.93L39.24 30.63L38.87 31.32L38.47 31.99L38.06 32.62L50.84 45.36L45.34 50.84L32.55 38.1L31.92 38.51L31.25 38.91L30.56 39.28L29.86 39.63L29.14 39.95L28.4 40.24L27.66 40.5L26.9 40.74L26.12 40.95L25.34 41.12L24.54 41.27L23.73 41.38L22.92 41.47L22.09 41.52L21.26 41.53L20.42 41.52L19.6 41.47L18.78 41.38L17.97 41.27L17.18 41.12L16.39 40.95L15.62 40.74L14.86 40.5L14.11 40.24L13.38 39.95L12.66 39.63L11.95 39.28L11.27 38.91L10.59 38.51L9.94 38.09L9.3 37.64L8.68 37.17L8.08 36.68L7.5 36.16L6.94 35.62L6.4 35.07L5.89 34.49L5.39 33.89L4.92 33.27L4.47 32.64L4.05 31.99L3.65 31.32L3.27 30.63L2.93 29.93L2.6 29.21L2.31 28.48L2.05 27.73L1.81 26.98L1.6 26.21L1.42 25.42L1.28 24.63L1.16 23.83L1.08 23.01L1.03 22.19L1.01 21.36L1.03 20.53L1.08 19.7L1.16 18.89L1.28 18.09L1.42 17.29L1.6 16.51L1.81 15.74L2.05 14.98L2.31 14.24L2.6 13.5L2.93 12.79L3.27 12.09L3.65 11.4L4.05 10.73L4.47 10.08L4.92 9.44L5.39 8.83L5.89 8.23L6.4 7.65L6.94 7.09L7.5 6.55L8.08 6.04L8.68 5.55L9.3 5.08L9.94 4.63L10.59 4.21L11.27 3.81L11.95 3.43L12.66 3.09L13.38 2.77L14.11 2.48L14.86 2.21L15.62 1.98L16.39 1.77L17.18 1.59L17.97 1.45L18.78 1.33L19.6 1.25L20.42 1.2L21.26 1.18L22.09 1.2L22.92 1.25ZM20.23 8.95L19.73 9L19.23 9.07L18.74 9.16L18.26 9.27L17.78 9.4L17.31 9.54L16.85 9.71L16.4 9.89L15.95 10.08L15.52 10.3L15.09 10.53L14.68 10.77L14.27 11.04L13.88 11.31L13.5 11.6L13.13 11.91L12.77 12.22L12.42 12.56L12.09 12.9L11.77 13.26L11.47 13.63L11.18 14.01L10.9 14.4L10.64 14.8L10.39 15.21L10.16 15.64L9.95 16.07L9.75 16.51L9.57 16.96L9.4 17.42L9.26 17.89L9.13 18.37L9.02 18.85L8.93 19.34L8.86 19.83L8.81 20.34L8.78 20.84L8.77 21.36L8.78 21.87L8.81 22.38L8.86 22.88L8.93 23.38L9.02 23.87L9.13 24.35L9.26 24.82L9.4 25.29L9.57 25.75L9.75 26.2L9.95 26.65L10.16 27.08L10.39 27.5L10.64 27.92L10.9 28.32L11.18 28.71L11.47 29.09L11.77 29.46L12.09 29.82L12.42 30.16L12.77 30.49L13.13 30.81L13.5 31.11L13.88 31.4L14.27 31.68L14.68 31.94L15.09 32.19L15.52 32.42L15.95 32.63L16.4 32.83L16.85 33.01L17.31 33.17L17.78 33.32L18.26 33.44L18.74 33.55L19.23 33.64L19.73 33.71L20.23 33.76L20.74 33.8L21.26 33.81L21.77 33.8L22.28 33.76L22.79 33.71L23.28 33.64L23.77 33.55L24.26 33.44L24.74 33.32L25.21 33.17L25.67 33.01L26.12 32.83L26.56 32.63L27 32.42L27.42 32.19L27.84 31.94L28.24 31.68L28.63 31.4L29.02 31.11L29.39 30.81L29.74 30.49L30.09 30.16L30.42 29.82L30.74 29.46L31.05 29.09L31.34 28.71L31.62 28.32L31.88 27.92L32.12 27.5L32.35 27.08L32.57 26.65L32.77 26.2L32.95 25.75L33.11 25.29L33.26 24.82L33.39 24.35L33.49 23.87L33.58 23.38L33.66 22.88L33.71 22.38L33.74 21.87L33.75 21.36L33.74 20.84L33.71 20.34L33.66 19.83L33.58 19.34L33.49 18.85L33.39 18.37L33.26 17.89L33.11 17.42L32.95 16.96L32.77 16.51L32.57 16.07L32.35 15.64L32.12 15.21L31.88 14.8L31.62 14.4L31.34 14.01L31.05 13.63L30.74 13.26L30.42 12.9L30.09 12.56L29.74 12.22L29.39 11.91L29.02 11.6L28.63 11.31L28.24 11.04L27.84 10.77L27.42 10.53L27 10.3L26.56 10.08L26.12 9.89L25.67 9.71L25.21 9.54L24.74 9.4L24.26 9.27L23.77 9.16L23.28 9.07L22.79 9L22.28 8.95L21.77 8.92L21.26 8.91L20.74 8.92L20.23 8.95Z" id="a1IMbO0yRy"></path><path d="M58.51 53.04L53.02 58.52L45.4 50.9L50.89 45.42L58.51 53.04Z" id="llFSJofrV"></path></defs><g><g><g><use xlink:href="#a1IMbO0yRy" opacity="1" fill-opacity="0" stroke="#000000" stroke-width="2" stroke-opacity="1"></use></g></g><g><g><use xlink:href="#llFSJofrV" opacity="1" fill-opacity="0" stroke="#000000" stroke-width="2" stroke-opacity="1"></use></g></g></g></svg>